<svg width="226" height="76" viewBox="0 0 226 76" fill="none" xmlns="http://www.w3.org/2000/svg">
<circle cx="17.4309" cy="53.4986" r="10.8669" fill="#121212"/>
<path d="M36.1035 66.5923C40.8433 64.1746 44.4284 59.973 46.0703 54.9119C47.7122 49.8508 47.2763 44.3447 44.8586 39.605C42.4408 34.8653 38.2392 31.2801 33.1781 29.6382C28.117 27.9963 22.611 28.4322 17.8713 30.85L26.9874 48.7212L36.1035 66.5923Z" fill="#121212"/>
<path d="M29.7694 10.4722L39.8324 -1.7616e-05L69.3601 60.0013L59.2971 68.2444L29.7694 10.4722Z" fill="#121212"/>
<path d="M79.3516 53H74.8359L83.0547 29.7188H88.2422L96.4453 53H91.9453L85.7266 34.5H85.5391L79.3516 53ZM79.5078 43.875H91.7734V47.25H79.5078V43.875ZM102.258 42.7812V53H98.1484V35.5312H102.18V38.5156H102.383C102.779 37.5365 103.398 36.7604 104.242 36.1875C105.096 35.6042 106.18 35.3125 107.492 35.3125C108.701 35.3125 109.753 35.5677 110.648 36.0781C111.544 36.5885 112.237 37.3385 112.727 38.3281C113.227 39.3073 113.477 40.4948 113.477 41.8906V53H109.367V42.5312C109.367 41.3646 109.065 40.4531 108.461 39.7969C107.857 39.1302 107.023 38.7969 105.961 38.7969C105.242 38.7969 104.602 38.9531 104.039 39.2656C103.487 39.5781 103.049 40.0312 102.727 40.625C102.414 41.2083 102.258 41.9271 102.258 42.7812ZM120.633 42.7812V53H116.523V35.5312H120.555V38.5156H120.758C121.154 37.5365 121.773 36.7604 122.617 36.1875C123.471 35.6042 124.555 35.3125 125.867 35.3125C127.076 35.3125 128.128 35.5677 129.023 36.0781C129.919 36.5885 130.612 37.3385 131.102 38.3281C131.602 39.3073 131.852 40.4948 131.852 41.8906V53H127.742V42.5312C127.742 41.3646 127.44 40.4531 126.836 39.7969C126.232 39.1302 125.398 38.7969 124.336 38.7969C123.617 38.7969 122.977 38.9531 122.414 39.2656C121.862 39.5781 121.424 40.0312 121.102 40.625C120.789 41.2083 120.633 41.9271 120.633 42.7812ZM139.93 53.3594C138.815 53.3594 137.815 53.1615 136.93 52.7656C136.044 52.3594 135.346 51.7656 134.836 50.9844C134.326 50.2031 134.07 49.2396 134.07 48.0938C134.07 47.1146 134.253 46.3021 134.617 45.6562C134.982 45.0104 135.477 44.4948 136.102 44.1094C136.737 43.724 137.451 43.4323 138.242 43.2344C139.034 43.026 139.852 42.8802 140.695 42.7969C141.727 42.6823 142.56 42.5833 143.195 42.5C143.831 42.4167 144.289 42.2812 144.57 42.0938C144.862 41.9062 145.008 41.6146 145.008 41.2188V41.1406C145.008 40.2969 144.758 39.6406 144.258 39.1719C143.758 38.7031 143.029 38.4688 142.07 38.4688C141.06 38.4688 140.258 38.6875 139.664 39.125C139.081 39.5625 138.685 40.0781 138.477 40.6719L134.648 40.125C134.951 39.0625 135.451 38.1771 136.148 37.4688C136.846 36.75 137.695 36.2135 138.695 35.8594C139.706 35.4948 140.82 35.3125 142.039 35.3125C142.872 35.3125 143.706 35.4115 144.539 35.6094C145.372 35.7969 146.138 36.1198 146.836 36.5781C147.534 37.0365 148.091 37.651 148.508 38.4219C148.924 39.1927 149.133 40.1562 149.133 41.3125V53H145.18V50.5938H145.055C144.805 51.0729 144.451 51.526 143.992 51.9531C143.544 52.3698 142.982 52.7083 142.305 52.9688C141.638 53.2292 140.846 53.3594 139.93 53.3594ZM140.977 50.3281C141.81 50.3281 142.529 50.1667 143.133 49.8438C143.737 49.5104 144.206 49.0729 144.539 48.5312C144.872 47.9792 145.039 47.3802 145.039 46.7344V44.6875C144.904 44.7917 144.685 44.8906 144.383 44.9844C144.081 45.0677 143.737 45.1458 143.352 45.2188C142.966 45.2917 142.586 45.3542 142.211 45.4062C141.846 45.4583 141.529 45.5 141.258 45.5312C140.643 45.6146 140.091 45.7552 139.602 45.9531C139.122 46.1406 138.742 46.401 138.461 46.7344C138.18 47.0677 138.039 47.5 138.039 48.0312C138.039 48.7917 138.315 49.3646 138.867 49.75C139.419 50.1354 140.122 50.3281 140.977 50.3281ZM155.93 47.5312L155.914 42.5469H156.586L162.852 35.5312H167.664L159.945 44.1406H159.086L155.93 47.5312ZM152.18 53V29.7188H156.289V53H152.18ZM163.133 53L157.445 45.0625L160.227 42.1562L168.055 53H163.133ZM176.07 53.3438C174.362 53.3438 172.883 52.9688 171.633 52.2188C170.383 51.4688 169.414 50.4167 168.727 49.0625C168.049 47.7083 167.711 46.1354 167.711 44.3438C167.711 42.5417 168.049 40.9635 168.727 39.6094C169.414 38.2448 170.383 37.1875 171.633 36.4375C172.883 35.6875 174.362 35.3125 176.07 35.3125C177.779 35.3125 179.258 35.6875 180.508 36.4375C181.758 37.1875 182.727 38.2448 183.414 39.6094C184.102 40.9635 184.445 42.5417 184.445 44.3438C184.445 46.1354 184.102 47.7083 183.414 49.0625C182.727 50.4167 181.758 51.4688 180.508 52.2188C179.258 52.9688 177.779 53.3438 176.07 53.3438ZM176.07 50.0312C177.018 50.0312 177.799 49.7812 178.414 49.2812C179.029 48.7708 179.487 48.0833 179.789 47.2188C180.102 46.3542 180.258 45.3958 180.258 44.3438C180.258 43.2708 180.102 42.3021 179.789 41.4375C179.487 40.5729 179.029 39.8906 178.414 39.3906C177.799 38.8802 177.018 38.625 176.07 38.625C175.143 38.625 174.367 38.8802 173.742 39.3906C173.117 39.8906 172.648 40.5729 172.336 41.4375C172.034 42.3021 171.883 43.2708 171.883 44.3438C171.883 45.3958 172.034 46.3542 172.336 47.2188C172.648 48.0833 173.117 48.7708 173.742 49.2812C174.367 49.7812 175.143 50.0312 176.07 50.0312ZM194.32 53.3438C192.612 53.3438 191.133 52.9688 189.883 52.2188C188.633 51.4688 187.664 50.4167 186.977 49.0625C186.299 47.7083 185.961 46.1354 185.961 44.3438C185.961 42.5417 186.299 40.9635 186.977 39.6094C187.664 38.2448 188.633 37.1875 189.883 36.4375C191.133 35.6875 192.612 35.3125 194.32 35.3125C196.029 35.3125 197.508 35.6875 198.758 36.4375C200.008 37.1875 200.977 38.2448 201.664 39.6094C202.352 40.9635 202.695 42.5417 202.695 44.3438C202.695 46.1354 202.352 47.7083 201.664 49.0625C200.977 50.4167 200.008 51.4688 198.758 52.2188C197.508 52.9688 196.029 53.3438 194.32 53.3438ZM194.32 50.0312C195.268 50.0312 196.049 49.7812 196.664 49.2812C197.279 48.7708 197.737 48.0833 198.039 47.2188C198.352 46.3542 198.508 45.3958 198.508 44.3438C198.508 43.2708 198.352 42.3021 198.039 41.4375C197.737 40.5729 197.279 39.8906 196.664 39.3906C196.049 38.8802 195.268 38.625 194.32 38.625C193.393 38.625 192.617 38.8802 191.992 39.3906C191.367 39.8906 190.898 40.5729 190.586 41.4375C190.284 42.3021 190.133 43.2708 190.133 44.3438C190.133 45.3958 190.284 46.3542 190.586 47.2188C190.898 48.0833 191.367 48.7708 191.992 49.2812C192.617 49.7812 193.393 50.0312 194.32 50.0312ZM213.664 35.5312V38.7188H203.648V35.5312H213.664ZM206.102 31.375H210.211V47.75C210.211 48.4375 210.362 48.9479 210.664 49.2812C210.966 49.6042 211.445 49.7656 212.102 49.7656C212.279 49.7656 212.477 49.75 212.695 49.7188C212.914 49.6875 213.112 49.651 213.289 49.6094L213.992 52.8281C213.555 52.9635 213.112 53.0625 212.664 53.125C212.216 53.1979 211.768 53.2344 211.32 53.2344C209.695 53.2344 208.419 52.8073 207.492 51.9531C206.565 51.0885 206.102 49.9115 206.102 48.4219V31.375Z" fill="#121212"/>
</svg>
