<?xml version="1.0" standalone="no"?>
<!DOCTYPE svg PUBLIC "-//W3C//DTD SVG 20010904//EN"
 "http://www.w3.org/TR/2001/REC-SVG-20010904/DTD/svg10.dtd">
<svg version="1.0" xmlns="http://www.w3.org/2000/svg"
 width="150.000000pt" height="150.000000pt" viewBox="0 0 150.000000 150.000000"
 preserveAspectRatio="xMidYMid meet">
<metadata>
Created by potrace 1.14, written by Peter Selinger 2001-2017
</metadata>
<g transform="translate(0.000000,150.000000) scale(0.100000,-0.100000)"
fill="#000000" stroke="none">
<path d="M667 1384 l-109 -114 141 -275 c78 -151 141 -278 141 -280 0 -3 -16
10 -36 30 -108 108 -286 154 -430 110 -85 -26 -85 -16 5 -188 44 -85 81 -157
81 -160 0 -4 -22 7 -49 24 -100 63 -220 44 -300 -47 -64 -73 -78 -162 -37
-249 84 -182 335 -184 427 -3 12 24 19 58 19 95 l0 58 86 -165 c48 -91 88
-166 89 -168 6 -7 49 22 93 61 104 96 146 201 140 344 l-4 92 34 -62 c18 -34
81 -156 138 -270 l105 -208 107 87 c59 48 108 89 110 90 2 1 -635 1304 -641
1310 -1 2 -51 -49 -110 -112z"/>
</g>
</svg>
